# xmcd
#
# Track frame offsets:
#	150
#	18946
#	33502
#	48733
#	63346
#	83603
#	102701
#	117694
#	135056
#	150581
#	170734
#	189749
#	203501
#	219822
#	235858
#	257502
#
# Disc length: 3759 seconds
#
# Revision: 1
# Processed by: cddbd v1.5.1PL0 Copyright (c) Steve Scherf et al.
# Submitted via: audiograbber 1.83.01
#
DISCID=d40ead10
DTITLE=Mark Wills - Live At Billy Bob's Texas
DYEAR=2005
DGENRE=Country
TTITLE0=And The Crowd Goes Wild
TTITLE1=Jacob's Ladder
TTITLE2=I Do (Cherish You)
TTITLE3=High Low And In Between
TTITLE4=She's In Love
TTITLE5=Wish You Were Here
TTITLE6=Everything There Is To Know About You
TTITLE7=Places I've Never Been
TTITLE8=How Bad Do You Want It
TTITLE9=When You Think Of Me
TTITLE10=Loving Every Minute
TTITLE11=He's A Cowboy
TTITLE12=Singer In The Band
TTITLE13=Don't Laugh At Me
TTITLE14=Back To One
TTITLE15=19 Somethin'
EXTD=
EXTT0=
EXTT1=
EXTT2=
EXTT3=
EXTT4=
EXTT5=
EXTT6=
EXTT7=
EXTT8=
EXTT9=
EXTT10=
EXTT11=
EXTT12=
EXTT13=
EXTT14=
EXTT15=
PLAYORDER=
